<svg width="24" height="24" viewBox="0 0 24 24" fill="none" xmlns="http://www.w3.org/2000/svg">
<path d="M21.5862 6.98505L12.3408 12.3401C11.9686 12.5563 11.5003 12.5563 11.1161 12.3401L1.87068 6.98505C1.2103 6.60083 1.0422 5.70031 1.54649 5.13598C1.8947 4.73975 2.29093 4.41556 2.71117 4.18743L9.21894 0.585339C10.6118 -0.195113 12.8691 -0.195113 14.2619 0.585339L20.7697 4.18743C21.1899 4.41556 21.5862 4.75176 21.9344 5.13598C22.4146 5.70031 22.2465 6.60083 21.5862 6.98505Z" fill="#314CA3"/>
<path d="M11.0464 14.5704V22.7592C11.0464 23.6717 10.1219 24.2721 9.30539 23.8758C6.83196 22.6631 2.66555 20.3938 2.66555 20.3938C1.2007 19.5653 0 17.4761 0 15.7591V9.56353C0 8.61498 0.996578 8.01463 1.81305 8.48291L10.4461 13.4898C10.8063 13.7179 11.0464 14.1262 11.0464 14.5704Z" fill="#314CA3"/>
<path d="M12.4153 14.5704V22.7592C12.4153 23.6717 13.3399 24.2721 14.1563 23.8758C16.6298 22.6631 20.7962 20.3938 20.7962 20.3938C22.261 19.5653 23.4617 17.4761 23.4617 15.7591V9.56353C23.4617 8.61498 22.4652 8.01463 21.6487 8.48291L13.0157 13.4898C12.6555 13.7179 12.4153 14.1262 12.4153 14.5704Z" fill="#314CA3"/>
</svg>
