<svg width="49" height="47" viewBox="0 0 49 47" fill="none" xmlns="http://www.w3.org/2000/svg">
<path d="M24.5 0C11.0005 0 0 10.4861 0 23.3544C0 36.2227 11.0005 46.7088 24.5 46.7088C37.9994 46.7088 48.9999 36.2227 48.9999 23.3544C48.9999 10.4861 37.9994 0 24.5 0ZM36.2109 17.9829L22.3195 31.2248C21.9765 31.5518 21.511 31.7386 21.021 31.7386C20.531 31.7386 20.0655 31.5518 19.7225 31.2248L12.789 24.6155C12.0785 23.9383 12.0785 22.8172 12.789 22.14C13.4995 21.4627 14.6755 21.4627 15.386 22.14L21.021 27.5115L33.6139 15.5073C34.3244 14.83 35.5004 14.83 36.2109 15.5073C36.9214 16.1846 36.9214 17.2823 36.2109 17.9829Z" fill="#888EA2"/>
</svg>
