<svg width="25" height="29" viewBox="0 0 25 29" fill="none" xmlns="http://www.w3.org/2000/svg">
<path d="M12.5134 28.7841C11.0546 28.7841 9.6092 28.3558 8.47162 27.5126L2.71681 23.2166C1.19111 22.079 0 19.6968 0 17.8098V7.85265C0 5.79162 1.51231 3.59676 3.45289 2.87406L10.1312 0.371386C11.4561 -0.123795 13.5439 -0.123795 14.8688 0.371386L21.5471 2.87406C23.4877 3.59676 25 5.79162 25 7.85265V17.7964C25 19.6968 23.8089 22.0656 22.2832 23.2032L16.5284 27.4993C15.4176 28.3558 13.9722 28.7841 12.5134 28.7841ZM10.8405 2.25843L4.1622 4.76111C3.02462 5.18937 2.02088 6.63477 2.02088 7.86603V17.8098C2.02088 19.0812 2.91756 20.8612 3.9213 21.6106L9.67612 25.9067C11.2152 27.0576 13.8116 27.0576 15.364 25.9067L21.1188 21.6106C22.136 20.8478 23.0193 19.0812 23.0193 17.8098V7.85265C23.0193 6.63477 22.0155 5.18937 20.8779 4.74772L14.1997 2.24505C13.2896 1.92385 11.7372 1.92385 10.8405 2.25843Z" fill="#CE0F0F"/>
<path d="M15.3894 17.3146C15.1351 17.3146 14.8809 17.2209 14.6801 17.0201L8.99226 11.3322C8.60414 10.9441 8.60414 10.3017 8.99226 9.91358C9.38037 9.52547 10.0227 9.52547 10.4108 9.91358L16.0987 15.6015C16.4868 15.9896 16.4868 16.632 16.0987 17.0201C15.898 17.2075 15.6437 17.3146 15.3894 17.3146Z" fill="#CE0F0F"/>
<path d="M9.63419 17.3681C9.37991 17.3681 9.12563 17.2744 8.92488 17.0737C8.53676 16.6856 8.53676 16.0432 8.92488 15.655L14.6128 9.96717C15.0009 9.57906 15.6433 9.57906 16.0315 9.96717C16.4196 10.3553 16.4196 10.9977 16.0315 11.3858L10.3436 17.0737C10.1562 17.2744 9.88853 17.3681 9.63419 17.3681Z" fill="#CE0F0F"/>
</svg>
