<svg width="15" height="15" viewBox="0 0 15 15" fill="none" xmlns="http://www.w3.org/2000/svg">
<path d="M14.5868 4.16106L13.2361 5.5117C13.0984 5.6494 12.8758 5.6494 12.7381 5.5117L9.48602 2.25961C9.34832 2.12192 9.34832 1.89925 9.48602 1.76154L10.8366 0.410906C11.3846 -0.136969 12.2752 -0.136969 12.826 0.410906L14.5868 2.17172C15.1376 2.71959 15.1376 3.61026 14.5868 4.16106ZM8.32582 2.92175L0.632144 10.6154L0.011025 14.1752C-0.0739394 14.6556 0.345023 15.0716 0.825512 14.9896L4.38523 14.3656L12.0789 6.6719C12.2166 6.53421 12.2166 6.31154 12.0789 6.17383L8.82681 2.92175C8.68618 2.78405 8.46351 2.78405 8.32582 2.92175ZM3.6352 9.95621C3.47406 9.79508 3.47406 9.53726 3.6352 9.37611L8.1471 4.86421C8.30824 4.70307 8.56606 4.70307 8.7272 4.86421C8.88834 5.02535 8.88834 5.28317 8.7272 5.44431L4.2153 9.95621C4.05415 10.1173 3.79633 10.1173 3.6352 9.95621ZM2.57753 12.4202H3.98384V13.4837L2.09412 13.8148L1.18295 12.9036L1.51401 11.0138H2.57753V12.4202Z" fill="white"/>
</svg>
